<svg xmlns="http://www.w3.org/2000/svg" height="100%" version="1.1" viewBox="0 0 36 36" width="100%" fill="#fff">
    <g class="fullscreen-button-corner-0">
        <path class="svg-fill" d="m 10,16 2,0 0,-4 4,0 0,-2 L 10,10 l 0,6 0,0 z"></path>
    </g>
    <g class="fullscreen-button-corner-1">
        <path class="svg-fill" d="m 20,10 0,2 4,0 0,4 2,0 L 26,10 l -6,0 0,0 z"></path>
    </g>
    <g class="fullscreen-button-corner-2">
        <path class="svg-fill" d="m 24,24 -4,0 0,2 L 26,26 l 0,-6 -2,0 0,4 0,0 z"></path>
    </g>
    <g class="fullscreen-button-corner-3">
        <path class="svg-fill" d="M 12,20 10,20 10,26 l 6,0 0,-2 -4,0 0,-4 0,0 z"></path>
    </g>
</svg>